HIERARCHY
ROOT mixamorig:Hips
{
	OFFSET -0.000008 104.274872 1.554316
	CHANNELS 6 Xposition Yposition Zposition Xrotation Yrotation Zrotation
	JOINT mixamorig:Spine
	{
		OFFSET -0.000005 10.181595 0.131519
		CHANNELS 6 Xposition Yposition Zposition Xrotation Yrotation Zrotation
		JOINT mixamorig:Spine1
		{
			OFFSET -0.000000 9.893959 -1.470707
			CHANNELS 6 Xposition Yposition Zposition Xrotation Yrotation Zrotation
			JOINT mixamorig:Spine2
			{
				OFFSET -0.000000 9.220757 -1.370641
				CHANNELS 6 Xposition Yposition Zposition Xrotation Yrotation Zrotation
				JOINT mixamorig:Neck
				{
					OFFSET 0.000001 16.740417 -2.049036
					CHANNELS 6 Xposition Yposition Zposition Xrotation Yrotation Zrotation
					JOINT mixamorig:Head
					{
						OFFSET 0.000000 9.617874 1.685006
						CHANNELS 6 Xposition Yposition Zposition Xrotation Yrotation Zrotation
						JOINT mixamorig:HeadTop_End
						{
							OFFSET 0.000002 22.037354 7.501101
							CHANNELS 6 Xposition Yposition Zposition Xrotation Yrotation Zrotation
							End Site
							{
								OFFSET 0.000168 2310.654297 -282.823242
							}
						}
					}
				}
				JOINT mixamorig:RightShoulder
				{
					OFFSET -4.569970 11.014908 -2.160885
					CHANNELS 6 Xposition Yposition Zposition Xrotation Yrotation Zrotation
					JOINT mixamorig:RightArm
					{
						OFFSET -10.592851 -0.524811 -2.232101
						CHANNELS 6 Xposition Yposition Zposition Xrotation Yrotation Zrotation
						JOINT mixamorig:RightForeArm
						{
							OFFSET -27.841511 0.000031 -0.000004
							CHANNELS 6 Xposition Yposition Zposition Xrotation Yrotation Zrotation
							JOINT mixamorig:RightHand
							{
								OFFSET -28.328831 -0.000015 0.000015
								CHANNELS 6 Xposition Yposition Zposition Xrotation Yrotation Zrotation
								JOINT mixamorig:RightHandThumb1
								{
									OFFSET -2.464806 -1.573990 2.681852
									CHANNELS 6 Xposition Yposition Zposition Xrotation Yrotation Zrotation
									JOINT mixamorig:RightHandThumb2
									{
										OFFSET -3.215179 -1.872803 1.924282
										CHANNELS 6 Xposition Yposition Zposition Xrotation Yrotation Zrotation
										JOINT mixamorig:RightHandThumb3
										{
											OFFSET -2.654831 -1.527969 1.512609
											CHANNELS 6 Xposition Yposition Zposition Xrotation Yrotation Zrotation
											JOINT mixamorig:RightHandThumb4
											{
												OFFSET -2.018814 -1.152008 1.108052
												CHANNELS 6 Xposition Yposition Zposition Xrotation Yrotation Zrotation
												End Site
												{
													OFFSET -188.809540 -114.533607 132.431396
												}
											}
										}
									}
								}
								JOINT mixamorig:RightHandIndex1
								{
									OFFSET -9.108284 -0.517868 2.259835
									CHANNELS 6 Xposition Yposition Zposition Xrotation Yrotation Zrotation
									JOINT mixamorig:RightHandIndex2
									{
										OFFSET -3.699989 0.000000 0.001215
										CHANNELS 6 Xposition Yposition Zposition Xrotation Yrotation Zrotation
										JOINT mixamorig:RightHandIndex3
										{
											OFFSET -2.850006 0.000031 -0.000522
											CHANNELS 6 Xposition Yposition Zposition Xrotation Yrotation Zrotation
											JOINT mixamorig:RightHandIndex4
											{
												OFFSET -2.772186 -0.000015 -0.000020
												CHANNELS 6 Xposition Yposition Zposition Xrotation Yrotation Zrotation
												End Site
												{
													OFFSET -277.218445 0.000000 -0.050231
												}
											}
										}
									}
								}
								JOINT mixamorig:RightHandMiddle1
								{
									OFFSET -9.532516 -0.000031 -0.000023
									CHANNELS 6 Xposition Yposition Zposition Xrotation Yrotation Zrotation
									JOINT mixamorig:RightHandMiddle2
									{
										OFFSET -3.700005 -0.000015 0.003713
										CHANNELS 6 Xposition Yposition Zposition Xrotation Yrotation Zrotation
										JOINT mixamorig:RightHandMiddle3
										{
											OFFSET -2.949974 0.000015 -0.002054
											CHANNELS 6 Xposition Yposition Zposition Xrotation Yrotation Zrotation
											JOINT mixamorig:RightHandMiddle4
											{
												OFFSET -2.946640 0.000000 -0.000156
												CHANNELS 6 Xposition Yposition Zposition Xrotation Yrotation Zrotation
												End Site
												{
													OFFSET -294.664337 0.000000 -0.113670
												}
											}
										}
									}
								}
								JOINT mixamorig:RightHandRing1
								{
									OFFSET -9.103600 -0.043076 -1.865134
									CHANNELS 6 Xposition Yposition Zposition Xrotation Yrotation Zrotation
									JOINT mixamorig:RightHandRing2
									{
										OFFSET -3.379288 0.000000 -0.001055
										CHANNELS 6 Xposition Yposition Zposition Xrotation Yrotation Zrotation
										JOINT mixamorig:RightHandRing3
										{
											OFFSET -2.889687 -0.000015 0.000379
											CHANNELS 6 Xposition Yposition Zposition Xrotation Yrotation Zrotation
											JOINT mixamorig:RightHandRing4
											{
												OFFSET -2.638809 -0.000015 0.000941
												CHANNELS 6 Xposition Yposition Zposition Xrotation Yrotation Zrotation
												End Site
												{
													OFFSET -263.880371 0.000000 0.516020
												}
											}
										}
									}
								}
								JOINT mixamorig:RightHandPinky1
								{
									OFFSET -8.076683 -0.486710 -3.806280
									CHANNELS 6 Xposition Yposition Zposition Xrotation Yrotation Zrotation
									JOINT mixamorig:RightHandPinky2
									{
										OFFSET -3.600014 -0.000015 -0.003747
										CHANNELS 6 Xposition Yposition Zposition Xrotation Yrotation Zrotation
										JOINT mixamorig:RightHandPinky3
										{
											OFFSET -2.099983 0.000000 -0.005739
											CHANNELS 6 Xposition Yposition Zposition Xrotation Yrotation Zrotation
											JOINT mixamorig:RightHandPinky4
											{
												OFFSET -2.115768 -0.000031 -0.003680
												CHANNELS 6 Xposition Yposition Zposition Xrotation Yrotation Zrotation
												End Site
												{
													OFFSET -211.577087 0.000000 -0.350686
												}
											}
										}
									}
								}
							}
						}
					}
				}
				JOINT mixamorig:LeftShoulder
				{
					OFFSET 4.570447 11.014725 -2.160855
					CHANNELS 6 Xposition Yposition Zposition Xrotation Yrotation Zrotation
					JOINT mixamorig:LeftArm
					{
						OFFSET 10.592371 -0.524597 -2.232119
						CHANNELS 6 Xposition Yposition Zposition Xrotation Yrotation Zrotation
						JOINT mixamorig:LeftForeArm
						{
							OFFSET 27.841532 -0.000031 0.000026
							CHANNELS 6 Xposition Yposition Zposition Xrotation Yrotation Zrotation
							JOINT mixamorig:LeftHand
							{
								OFFSET 28.328846 -0.000061 0.000022
								CHANNELS 6 Xposition Yposition Zposition Xrotation Yrotation Zrotation
								JOINT mixamorig:LeftHandThumb1
								{
									OFFSET 2.466141 -1.576172 2.681732
									CHANNELS 6 Xposition Yposition Zposition Xrotation Yrotation Zrotation
									JOINT mixamorig:LeftHandThumb2
									{
										OFFSET 3.217812 -1.872070 1.916482
										CHANNELS 6 Xposition Yposition Zposition Xrotation Yrotation Zrotation
										JOINT mixamorig:LeftHandThumb3
										{
											OFFSET 2.656029 -1.528778 1.514513
											CHANNELS 6 Xposition Yposition Zposition Xrotation Yrotation Zrotation
											JOINT mixamorig:LeftHandThumb4
											{
												OFFSET 2.020889 -1.154053 1.115139
												CHANNELS 6 Xposition Yposition Zposition Xrotation Yrotation Zrotation
												End Site
												{
													OFFSET 190.885437 -115.081749 130.048782
												}
											}
										}
									}
								}
								JOINT mixamorig:LeftHandIndex1
								{
									OFFSET 9.109314 -0.518021 2.259871
									CHANNELS 6 Xposition Yposition Zposition Xrotation Yrotation Zrotation
									JOINT mixamorig:LeftHandIndex2
									{
										OFFSET 3.699989 0.000000 -0.000322
										CHANNELS 6 Xposition Yposition Zposition Xrotation Yrotation Zrotation
										JOINT mixamorig:LeftHandIndex3
										{
											OFFSET 2.850006 0.000000 0.000352
											CHANNELS 6 Xposition Yposition Zposition Xrotation Yrotation Zrotation
											JOINT mixamorig:LeftHandIndex4
											{
												OFFSET 2.774864 -0.000031 -0.000027
												CHANNELS 6 Xposition Yposition Zposition Xrotation Yrotation Zrotation
												End Site
												{
													OFFSET 277.486267 0.000000 -0.009857
												}
											}
										}
									}
								}
								JOINT mixamorig:LeftHandMiddle1
								{
									OFFSET 9.533394 0.000061 0.000044
									CHANNELS 6 Xposition Yposition Zposition Xrotation Yrotation Zrotation
									JOINT mixamorig:LeftHandMiddle2
									{
										OFFSET 3.699989 -0.000015 -0.000231
										CHANNELS 6 Xposition Yposition Zposition Xrotation Yrotation Zrotation
										JOINT mixamorig:LeftHandMiddle3
										{
											OFFSET 2.949997 -0.000015 -0.000059
											CHANNELS 6 Xposition Yposition Zposition Xrotation Yrotation Zrotation
											JOINT mixamorig:LeftHandMiddle4
											{
												OFFSET 2.952896 0.000031 0.000063
												CHANNELS 6 Xposition Yposition Zposition Xrotation Yrotation Zrotation
												End Site
												{
													OFFSET 295.289337 0.000000 0.022810
												}
											}
										}
									}
								}
								JOINT mixamorig:LeftHandRing1
								{
									OFFSET 9.104523 -0.042999 -1.865074
									CHANNELS 6 Xposition Yposition Zposition Xrotation Yrotation Zrotation
									JOINT mixamorig:LeftHandRing2
									{
										OFFSET 3.150009 -0.000031 0.000043
										CHANNELS 6 Xposition Yposition Zposition Xrotation Yrotation Zrotation
										JOINT mixamorig:LeftHandRing3
										{
											OFFSET 2.949982 -0.000015 0.000040
											CHANNELS 6 Xposition Yposition Zposition Xrotation Yrotation Zrotation
											JOINT mixamorig:LeftHandRing4
											{
												OFFSET 2.644348 0.000000 0.000057
												CHANNELS 6 Xposition Yposition Zposition Xrotation Yrotation Zrotation
												End Site
												{
													OFFSET 264.434631 0.000000 0.012105
												}
											}
										}
									}
								}
								JOINT mixamorig:LeftHandPinky1
								{
									OFFSET 8.077789 -0.486847 -3.806259
									CHANNELS 6 Xposition Yposition Zposition Xrotation Yrotation Zrotation
									JOINT mixamorig:LeftHandPinky2
									{
										OFFSET 3.599953 0.000031 0.014727
										CHANNELS 6 Xposition Yposition Zposition Xrotation Yrotation Zrotation
										JOINT mixamorig:LeftHandPinky3
										{
											OFFSET 2.100021 0.000015 0.007705
											CHANNELS 6 Xposition Yposition Zposition Xrotation Yrotation Zrotation
											JOINT mixamorig:LeftHandPinky4
											{
												OFFSET 2.125504 0.000031 0.007517
												CHANNELS 6 Xposition Yposition Zposition Xrotation Yrotation Zrotation
												End Site
												{
													OFFSET 212.550781 0.000000 0.625752
												}
											}
										}
									}
								}
							}
						}
					}
				}
			}
		}
	}
	JOINT mixamorig:RightUpLeg
	{
		OFFSET -8.207787 -6.751648 -1.599560
		CHANNELS 6 Xposition Yposition Zposition Xrotation Yrotation Zrotation
		JOINT mixamorig:RightLeg
		{
			OFFSET -0.000002 -44.370117 0.345942
			CHANNELS 6 Xposition Yposition Zposition Xrotation Yrotation Zrotation
			JOINT mixamorig:RightFoot
			{
				OFFSET 0.000003 -44.423679 -3.043532
				CHANNELS 6 Xposition Yposition Zposition Xrotation Yrotation Zrotation
				JOINT mixamorig:RightToeBase
				{
					OFFSET -0.000002 -8.728671 10.710558
					CHANNELS 6 Xposition Yposition Zposition Xrotation Yrotation Zrotation
					JOINT mixamorig:RightToe_End
					{
						OFFSET -0.000001 -0.000679 9.278119
						CHANNELS 6 Xposition Yposition Zposition Xrotation Yrotation Zrotation
						End Site
						{
							OFFSET 0.000000 -0.067690 927.812134
						}
					}
				}
			}
		}
	}
	JOINT mixamorig:LeftUpLeg
	{
		OFFSET 8.207793 -6.751686 -1.599556
		CHANNELS 6 Xposition Yposition Zposition Xrotation Yrotation Zrotation
		JOINT mixamorig:LeftLeg
		{
			OFFSET -0.000004 -44.370014 0.346954
			CHANNELS 6 Xposition Yposition Zposition Xrotation Yrotation Zrotation
			JOINT mixamorig:LeftFoot
			{
				OFFSET -0.000001 -44.423672 -3.044401
				CHANNELS 6 Xposition Yposition Zposition Xrotation Yrotation Zrotation
				JOINT mixamorig:LeftToeBase
				{
					OFFSET -0.000002 -8.728669 10.710558
					CHANNELS 6 Xposition Yposition Zposition Xrotation Yrotation Zrotation
					JOINT mixamorig:LeftToe_End
					{
						OFFSET -0.000003 -0.000679 9.278133
						CHANNELS 6 Xposition Yposition Zposition Xrotation Yrotation Zrotation
						End Site
						{
							OFFSET 0.000000 -0.068021 927.813477
						}
					}
				}
			}
		}
	}
}
MOTION
Frames: 3
Frame Time: 0.033333
0.000006 104.270477 1.554256 0.000010 0.000003 -0.000113 -0.000005 10.181587 0.131522 0.000001 -0.000003 0.000084 -0.000000 9.893967 -1.470711 0.000001 0.000000 -0.000000 -0.000000 9.220802 -1.370642 0.000000 -0.000000 -0.000000 0.000001 16.740433 -2.049030 0.000000 -0.000000 -0.000000 0.000000 9.617859 1.685014 0.000000 0.000000 0.000000 0.000002 22.037384 7.501101 0.000000 -0.000000 0.000000 -4.569968 11.014880 -2.160881 0.000008 0.000001 -0.000038 -10.592878 -0.524755 -2.231911 69.171593 27.206510 -18.944672 -27.841511 0.000004 0.000563 -47.787845 120.034824 75.038234 -28.328823 -0.000007 0.000023 -0.000321 -0.000045 0.000008 -2.464402 -1.573819 2.682322 -45.000093 -159.170250 -3.343517 -3.215231 -1.872483 1.924608 147.443212 34.093388 33.836634 -2.654980 -1.527871 1.513068 151.993689 27.732122 -23.625722 -2.018819 -1.152015 1.108056 -0.000005 -0.000003 0.000002 -9.108395 -0.517565 2.260161 107.345691 16.346057 -22.167205 -3.700077 0.000293 0.001537 103.559950 13.912170 -17.583770 -2.850086 0.000375 -0.000208 102.784771 10.494300 -13.120465 -2.772164 -0.000014 -0.000022 0.000001 -0.000001 0.000000 -9.532586 0.000266 0.000295 103.081830 16.388090 -20.730307 -3.700074 0.000324 0.004015 103.495350 12.401198 -15.572157 -2.950081 0.000346 -0.001745 106.181165 10.948165 -14.533135 -2.946621 0.000013 -0.000156 0.000001 0.000001 0.000001 -9.103700 -0.042771 -1.864818 101.495832 17.105997 -20.804285 -3.379328 0.000320 -0.000767 103.679348 9.428156 -12.003445 -2.889752 0.000345 0.000705 110.060261 6.389854 -9.190839 -2.638802 -0.000004 0.000939 0.000003 -0.000001 0.000000 -8.076755 -0.486393 -3.805973 95.112645 17.446306 -18.883730 -3.600043 0.000299 -0.003469 99.199700 7.893915 -8.855860 -2.099991 0.000329 -0.005456 103.734167 3.805985 -4.574923 -2.115782 -0.000042 -0.003678 -0.000000 -0.000000 -0.000007 4.570446 11.014691 -2.160851 -0.000018 0.000010 -0.000021 10.592420 -0.524602 -2.232291 2.813281 -54.023771 1.434444 27.841742 -0.000083 -0.000086 228.720086 -70.035544 245.741928 28.328838 -0.000028 0.000026 0.000021 -0.000091 0.000001 2.465878 -1.576149 2.681857 -55.859602 154.274412 28.354810 3.217681 -1.872046 1.916538 -11.308882 132.702024 -41.314636 2.656030 -1.528781 1.514612 24.592584 146.162688 -93.774768 2.020872 -1.154068 1.115144 -0.000002 0.000000 0.000001 9.109096 -0.517987 2.259988 188.178774 -22.498107 219.513442 3.700061 0.000137 -0.000431 76.800833 -23.459222 18.705532 2.850034 0.000041 0.000283 31.686245 -15.298533 4.364890 2.774862 -0.000029 -0.000056 0.000002 0.000003 0.000001 9.533249 0.000015 0.000139 180.172139 -18.515866 181.012389 3.700048 0.000123 -0.000389 75.385843 -10.316563 7.978158 2.950027 0.000012 -0.000116 22.069318 -1.952981 0.381406 2.952868 -0.000014 0.000088 0.000000 0.000003 -0.000001 9.104587 -0.043018 -1.865013 171.823558 -17.519802 130.244276 3.149996 0.000203 -0.000126 72.954056 7.585120 -5.610734 2.949962 0.000027 -0.000076 21.755537 14.824738 -2.864160 2.644312 0.000043 0.000058 0.000006 -0.000000 -0.000001 8.077949 -0.486722 -3.806236 163.726547 -11.796139 75.442629 3.599882 0.000224 0.014514 78.715424 14.163786 -11.384264 2.099977 0.000042 0.007592 23.915269 18.879968 -4.020312 2.125497 -0.000025 0.007513 0.000001 -0.000002 0.000003 -8.207786 -6.751667 -1.599560 -0.077001 -0.000003 0.000080 -0.000002 -44.370110 0.345938 0.153719 -0.000000 -0.000000 0.000000 -44.423679 -3.043532 -0.076700 0.000000 -0.000002 -0.000006 -8.728667 10.710559 -0.000009 -0.000000 -0.000000 -0.000001 -0.000679 9.278123 0.000000 -0.000000 -0.000000 8.207792 -6.751710 -1.599556 -0.074518 -0.000003 0.000081 -0.000002 -44.370014 0.346960 0.148822 0.000002 0.000000 -0.000001 -44.423664 -3.044403 -0.074314 0.000000 -0.000002 -0.000004 -8.728671 10.710558 0.000007 -0.000000 -0.000000 0.000000 -0.000680 9.278137 -0.000000 0.000000 -0.000001 
0.000006 104.270477 1.554256 0.000010 0.000003 -0.000113 -0.000005 10.181587 0.131522 0.000001 -0.000003 0.000084 -0.000000 9.893967 -1.470711 0.000001 0.000000 -0.000000 -0.000000 9.220802 -1.370642 0.000000 -0.000000 -0.000000 0.000001 16.740433 -2.049030 0.000000 -0.000000 -0.000000 0.000000 9.617859 1.685014 0.000000 0.000000 0.000000 0.000002 22.037384 7.501101 0.000000 -0.000000 0.000000 -4.569968 11.014880 -2.160881 0.000008 0.000001 -0.000038 -10.592879 -0.524755 -2.231929 68.908317 27.559906 -19.103225 -27.841507 -0.000008 0.000570 -47.893628 119.814878 74.930966 -28.328829 0.000023 0.000027 -0.000324 -0.000047 0.000007 -2.464427 -1.573815 2.682334 -43.291354 -157.713057 0.336834 -3.215254 -1.872509 1.924618 147.892051 34.159231 33.060305 -2.654958 -1.527866 1.513062 152.007417 27.570612 -24.846654 -2.018835 -1.151982 1.108066 -0.000004 -0.000004 0.000005 -9.108397 -0.517568 2.260165 107.363143 16.985043 -23.028459 -3.700066 0.000296 0.001563 104.043220 14.974213 -19.081160 -2.850090 0.000356 -0.000205 103.624966 11.576110 -14.685346 -2.772147 -0.000001 -0.000021 -0.000001 -0.000000 -0.000001 -9.532611 0.000255 0.000306 102.758857 17.313951 -21.759646 -3.700069 0.000319 0.004027 103.847740 13.415040 -16.952429 -2.950059 0.000345 -0.001759 106.918101 11.735073 -15.780648 -2.946610 -0.000000 -0.000155 0.000002 0.000001 0.000000 -9.103716 -0.042759 -1.864822 101.423514 18.018425 -21.880228 -3.379334 0.000326 -0.000771 103.546966 10.161985 -12.902831 -2.889740 0.000338 0.000693 110.074181 6.944479 -9.984085 -2.638805 -0.000021 0.000940 -0.000001 0.000000 0.000001 -8.076764 -0.486384 -3.805973 95.064438 18.708926 -20.239244 -3.600054 0.000294 -0.003469 98.744434 8.950726 -10.009089 -2.100008 0.000322 -0.005452 102.699168 4.532864 -5.396261 -2.115774 -0.000046 -0.003679 -0.000000 0.000000 -0.000004 4.570446 11.014691 -2.160851 -0.000018 0.000010 -0.000021 10.592414 -0.524601 -2.232288 6.278426 -49.689251 2.909318 27.841730 -0.000085 -0.000081 232.701704 -69.600311 250.954264 28.328840 -0.000030 0.000018 0.000023 -0.000090 -0.000000 2.465908 -1.576140 2.681855 -51.955101 146.606554 19.116660 3.217693 -1.872090 1.916564 -8.799212 133.349635 -45.189129 2.656051 -1.528785 1.514617 27.563274 148.599535 -98.719285 2.020891 -1.154064 1.115142 0.000000 0.000002 0.000002 9.109092 -0.517751 2.260043 207.179910 -20.291174 286.983457 3.700103 0.000156 -0.000430 98.111597 -22.598818 25.959923 2.850023 0.000089 0.000241 47.336080 -12.209277 5.367178 2.774866 -0.000030 -0.000023 0.000001 -0.000001 -0.000001 9.533132 0.000271 0.000187 194.655351 -17.822981 258.704944 3.700066 0.000215 -0.000382 91.162870 -9.178139 9.362874 2.950013 0.000038 -0.000180 39.087281 1.207513 -0.427813 2.952860 -0.000051 0.000068 0.000000 0.000001 -0.000001 9.104552 -0.043009 -1.865017 172.834522 -17.143508 134.897315 3.149980 0.000216 -0.000161 77.630550 8.852896 -7.125775 2.949954 0.000060 -0.000095 26.159213 16.246973 -3.798694 2.644336 0.000060 0.000061 0.000003 -0.000000 0.000002 8.077916 -0.486755 -3.806223 168.953581 -9.989439 89.311636 3.599876 0.000253 0.014511 84.422279 16.414743 -14.646726 2.099957 0.000051 0.007573 29.606790 20.104783 -5.337585 2.125521 -0.000040 0.007513 -0.000000 0.000001 -0.000001 -8.207786 -6.751667 -1.599560 -0.077001 -0.000003 0.000080 -0.000002 -44.370110 0.345938 0.153719 -0.000000 -0.000000 0.000000 -44.423679 -3.043532 -0.076700 0.000000 -0.000002 -0.000006 -8.728667 10.710559 -0.000009 -0.000000 -0.000000 -0.000001 -0.000679 9.278123 0.000000 -0.000000 -0.000000 8.207792 -6.751710 -1.599556 -0.074518 -0.000003 0.000081 -0.000002 -44.370014 0.346960 0.148822 0.000002 0.000000 -0.000001 -44.423664 -3.044403 -0.074314 0.000000 -0.000002 -0.000004 -8.728671 10.710558 0.000007 -0.000000 -0.000000 0.000000 -0.000680 9.278137 -0.000000 0.000000 -0.000001 
0.000006 104.270477 1.554256 0.000010 0.000003 -0.000113 -0.000005 10.181587 0.131522 0.000001 -0.000003 0.000084 -0.000000 9.893967 -1.470711 0.000001 0.000000 -0.000000 -0.000000 9.220802 -1.370642 0.000000 -0.000000 -0.000000 0.000001 16.740433 -2.049030 0.000000 -0.000000 -0.000000 0.000000 9.617859 1.685014 0.000000 0.000000 0.000000 0.000002 22.037384 7.501101 0.000000 -0.000000 0.000000 -4.569968 11.014880 -2.160881 0.000008 0.000001 -0.000038 -10.592878 -0.524753 -2.231920 68.808610 26.721918 -18.477111 -27.841511 0.000005 0.000556 -48.001941 120.584709 75.934218 -28.328825 0.000021 0.000025 -0.000321 -0.000047 0.000009 -2.464425 -1.573811 2.682326 -44.089243 -158.275550 -1.380445 -3.215244 -1.872513 1.924616 148.461333 34.074782 30.820768 -2.654968 -1.527870 1.513057 151.674623 27.582416 -25.013941 -2.018823 -1.152017 1.108067 0.000001 0.000000 0.000004 -9.108400 -0.517570 2.260162 107.241948 17.068993 -23.090780 -3.700077 0.000308 0.001537 104.096516 14.667198 -18.709744 -2.850090 0.000370 -0.000226 103.491948 11.287414 -14.286741 -2.772162 -0.000015 -0.000020 -0.000001 0.000000 -0.000001 -9.532611 0.000258 0.000285 102.570385 17.726831 -22.197223 -3.700099 0.000303 0.004020 103.669595 13.187710 -16.612463 -2.950057 0.000340 -0.001746 106.287873 11.457578 -15.235560 -2.946634 0.000014 -0.000157 -0.000000 -0.000000 0.000001 -9.103724 -0.042759 -1.864826 100.911680 18.499320 -22.262139 -3.379327 0.000299 -0.000752 103.364941 10.335924 -13.080206 -2.889751 0.000358 0.000686 109.658393 6.891600 -9.832897 -2.638793 -0.000019 0.000939 0.000002 -0.000000 -0.000000 -8.076775 -0.486384 -3.805982 94.463743 19.300289 -20.667410 -3.600062 0.000286 -0.003468 98.682156 9.620854 -10.773140 -2.100014 0.000328 -0.005449 102.644588 4.844877 -5.779166 -2.115765 -0.000054 -0.003679 0.000000 0.000000 -0.000005 4.570446 11.014691 -2.160851 -0.000018 0.000010 -0.000021 10.592422 -0.524586 -2.232303 13.560301 -50.215790 6.377682 27.841732 -0.000103 -0.000079 235.864136 -69.251793 255.034947 28.328833 -0.000030 0.000027 0.000022 -0.000088 -0.000000 2.465925 -1.576185 2.681869 -47.364370 142.312046 10.398657 3.217690 -1.872062 1.916545 -6.118039 134.034280 -49.291150 2.656053 -1.528733 1.514614 27.907962 150.246444 -100.395701 2.020879 -1.154084 1.115151 0.000001 0.000001 0.000004 9.109082 -0.517783 2.260043 204.869817 -20.883116 280.228346 3.700066 0.000153 -0.000444 94.484766 -18.987154 20.522394 2.850032 0.000069 0.000242 47.735280 -11.239256 4.985208 2.774891 -0.000035 -0.000024 -0.000003 0.000003 0.000004 9.533123 0.000216 0.000185 192.408177 -17.685072 249.879302 3.700031 0.000196 -0.000391 90.636289 -7.513504 7.594620 2.950031 0.000026 -0.000197 41.257119 1.598161 -0.600763 2.952873 -0.000041 0.000063 0.000000 0.000001 -0.000000 9.104542 -0.043024 -1.865006 173.250836 -17.918576 138.998639 3.149979 0.000205 -0.000152 74.206290 7.919181 -5.993016 2.949953 0.000036 -0.000095 26.875746 14.390536 -3.455362 2.644322 0.000016 0.000069 0.000002 -0.000000 -0.000002 8.077904 -0.486800 -3.806208 167.815999 -13.012778 98.036164 3.599895 0.000228 0.014501 82.664605 12.838565 -11.021411 2.099981 0.000051 0.007565 32.083123 17.237345 -4.943493 2.125485 0.000001 0.007515 0.000000 -0.000000 -0.000002 -8.207786 -6.751667 -1.599560 -0.077001 -0.000003 0.000080 -0.000002 -44.370110 0.345938 0.153719 -0.000000 -0.000000 0.000000 -44.423679 -3.043532 -0.076700 0.000000 -0.000002 -0.000006 -8.728667 10.710559 -0.000009 -0.000000 -0.000000 -0.000001 -0.000679 9.278123 0.000000 -0.000000 -0.000000 8.207792 -6.751710 -1.599556 -0.074518 -0.000003 0.000081 -0.000002 -44.370014 0.346960 0.148822 0.000002 0.000000 -0.000001 -44.423664 -3.044403 -0.074314 0.000000 -0.000002 -0.000004 -8.728671 10.710558 0.000007 -0.000000 -0.000000 0.000000 -0.000680 9.278137 -0.000000 0.000000 -0.000001 
